<svg width="202" height="183" viewBox="0 0 202 183" fill="none" xmlns="http://www.w3.org/2000/svg">
<mask id="mask0_43_1133" style="mask-type:luminance" maskUnits="userSpaceOnUse" x="153" y="0" width="25" height="21">
<path d="M153.586 0H177.202V20.3104H153.586V0Z" fill="white"/>
</mask>
<g mask="url(#mask0_43_1133)">
<path d="M168.167 0.0213776L153.586 14.3933L158.1 18.8418L177.195 0.0213776H168.167Z" fill="#47C5FB"/>
</g>
<mask id="mask1_43_1133" style="mask-type:luminance" maskUnits="userSpaceOnUse" x="159" y="13" width="19" height="13">
<path d="M159.339 13.0102H177.202V25.7853H159.339V13.0102Z" fill="white"/>
</mask>
<g mask="url(#mask1_43_1133)">
<path d="M168.067 13.274L160.264 20.9662L164.792 25.5002L169.299 21.0589L177.195 13.274H168.067Z" fill="#47C5FB"/>
</g>
<mask id="mask2_43_1133" style="mask-type:luminance" maskUnits="userSpaceOnUse" x="162" y="20" width="16" height="9">
<path d="M162.984 20.3103H177.202V28.8936H162.984V20.3103Z" fill="white"/>
</mask>
<g mask="url(#mask2_43_1133)">
<path d="M164.792 25.5002L168.224 28.8793H177.195L169.299 21.0588L164.792 25.5002Z" fill="#00569E"/>
</g>
<path d="M160.207 21.0161L164.721 16.5676L169.299 21.0588L164.792 25.5002L160.207 21.0161Z" fill="#00B5F8"/>
<path d="M38.7881 14.8139V68.9582H40.2334V14.8139H38.7881Z" fill="#252745"/>
<path d="M115.496 63.8111H96.1655C96.906 64.4242 97.739 65.073 98.6432 65.7288H115.225C115.318 65.0801 115.41 64.4456 115.496 63.8111Z" fill="#15151C"/>
<path d="M44.6475 19.904H93.3676V23.2474H44.6475V19.904ZM94.5352 19.904H119.625V23.2474H94.5352V19.904ZM48.542 63.8183H44.6475V23.2688H93.3676V61.3588C93.6951 61.6582 94.0867 62.0218 94.5352 62.421V23.2688H119.625V48.3199C120.237 47.2363 120.907 46.2811 121.619 45.5183V18.0433H42.7964V65.7288H85.0731C84.9948 65.0872 84.945 64.4456 84.9379 63.8183H48.542Z" fill="#15151C"/>
<path d="M73.6745 68.9581H72.0939L70.1787 77.9549H71.7593L73.6745 68.9581Z" fill="#252745"/>
<path d="M71.2466 81.0276C71.2537 80.7995 71.2679 80.5642 71.3178 80.2933C71.4815 79.3238 71.7592 77.955 71.7592 77.955H70.1786C70.1786 77.955 70.0006 78.8533 69.8653 79.6588C69.6162 81.049 69.2887 82.6245 71.275 82.6245H71.5741L70.9689 81.0276H71.2466Z" fill="#252745"/>
<path d="M80.7086 81.826C80.7086 81.384 80.4025 81.0275 80.0251 81.0275H70.9689L71.574 82.6244H80.0251C80.4025 82.6244 80.7086 82.268 80.7086 81.826Z" fill="#252745"/>
<path d="M90.0212 81.0275H80.0251C80.4025 81.0275 80.7086 81.384 80.7086 81.826C80.7086 82.268 80.4025 82.6244 80.0251 82.6244H97.0768C96.3079 82.1254 95.5034 81.5907 94.6846 81.0275H90.0212Z" fill="#424881"/>
<path d="M82.3106 34.4827H69.7087V33.8767H82.3106V34.4827ZM79.9041 36.7782H70.1217V36.1723H79.9041V36.7782ZM75.4828 53.8877H73.2472V53.2746H75.4828V53.8877ZM72.4142 53.8877H70.2641V53.2746H72.4142V53.8877ZM71.1184 56.1119H63.7139V55.506H71.1184V56.1119ZM71.1184 58.108H67.8576V57.5021H71.1184V58.108ZM66.9178 58.108H63.7139V57.5021H66.9178V58.108ZM64.2978 61.4016H62.8026V60.7956H64.2978V61.4016ZM62.0622 50.7438H57.7192V50.1307H62.0622V50.7438ZM62.0622 61.4016H57.7192V60.7956H62.0622V61.4016ZM57.7192 58.7995H60.6525V59.4126H57.7192V58.7995ZM60.6525 48.1346V48.7477H57.7192V48.1346H60.6525ZM57.6693 46.4451H65.4013V47.0582H57.6693V46.4451ZM60.5955 44.1496V44.7555H57.6693V44.1496H60.5955ZM54.7075 40.7704H63.1586V41.3835H54.7075V40.7704ZM53.96 28.8009H49.6241V28.195H53.96V28.8009ZM53.96 38.7743H49.6241V38.1684H53.96V38.7743ZM49.6241 26.206H52.5503V26.812H49.6241V26.206ZM49.6241 24.2099H57.3561V24.8159H49.6241V24.2099ZM58.4596 24.2099H60.4531V24.8159H58.4596V24.2099ZM54.7075 28.8009V28.195H56.1955V28.8009H54.7075ZM56.1955 38.1684V38.7743H54.7075V38.1684H56.1955ZM63.4078 30.797H54.7075V30.1911H63.4078V30.797ZM64.2408 30.1911H66.4764V30.797H64.2408V30.1911ZM66.1418 32.4866V31.8806H68.3845V32.4866H66.1418ZM68.3845 33.8767V34.4827H66.1418V33.8767H68.3845ZM69.3741 36.1723V36.7782H56.6156V36.1723H69.3741ZM63.1586 32.4866V31.8806H65.3159V32.4866H63.1586ZM56.6156 32.4866V31.8806H62.169V32.4866H56.6156ZM65.3159 33.8767V34.4827H56.6156V33.8767H65.3159ZM62.8026 50.7438V50.1307H64.2978V50.7438H62.8026ZM63.7139 53.2746H69.2673V53.8877H63.7139V53.2746ZM74.1016 31.8806V32.4866H69.7087V31.8806H74.1016ZM67.8006 30.1911H80.4025V30.797H67.8006V30.1911ZM48.5419 23.2689V63.8112H84.9378C84.9235 62.8559 84.9876 61.9149 85.1585 61.0238C84.1332 60.6816 80.4737 59.5695 78.3876 58.108H71.8945V57.5021H77.6401C77.1986 57.0601 76.921 56.6038 76.9139 56.1333C76.9139 56.1262 76.9139 56.1191 76.9139 56.1119H71.8945V55.506H76.9067C76.8996 54.7432 76.9067 54.2584 76.9637 53.8877H76.8071V53.2746H77.1559C77.4407 52.7114 78.0601 52.2124 79.3488 50.5157L80.4808 50.1593C75.8815 44.2565 78.4161 43.622 78.4161 43.622L82.9158 49.8598C83.0297 49.9596 83.1578 50.1094 83.3073 50.3446C84.1119 51.6207 85.4361 52.412 85.9345 53.3103C86.2549 53.8948 87.0309 55.4133 87.572 56.9745L92.2782 60.2824C92.2782 60.2824 92.6697 60.6958 93.3675 61.3517V23.2689H48.5419Z" fill="#1B1C28"/>
<path d="M47.5238 24.8159H45.5303V24.2099H47.5238V24.8159ZM47.5238 26.812H45.5303V26.206H47.5238V26.812ZM47.5238 28.8009H45.5303V28.195H47.5238V28.8009ZM47.5238 30.797H45.5303V30.1911H47.5238V30.797ZM47.5238 32.7931H45.5303V32.1872H47.5238V32.7931ZM47.5238 34.7893H45.5303V34.1762H47.5238V34.7893ZM47.5238 36.7782H45.5303V36.1723H47.5238V36.7782ZM47.5238 38.7743H45.5303V38.1684H47.5238V38.7743ZM47.5238 40.7704H45.5303V40.1573H47.5238V40.7704ZM47.5238 42.7665H45.5303V42.1535H47.5238V42.7665ZM47.5238 44.7555H45.5303V44.1496H47.5238V44.7555ZM47.5238 46.7516H45.5303V46.1457H47.5238V46.7516ZM47.5238 48.7477H45.5303V48.1346H47.5238V48.7477ZM47.5238 50.7438H45.5303V50.1307H47.5238V50.7438ZM47.5238 52.7328H45.5303V52.1268H47.5238V52.7328ZM47.5238 54.7289H45.5303V54.123H47.5238V54.7289ZM47.5238 56.725H45.5303V56.1119H47.5238V56.725ZM47.5238 58.7211H45.5303V58.108H47.5238V58.7211ZM47.5238 60.7101H45.5303V60.1041H47.5238V60.7101ZM47.5238 62.7062H45.5303V62.1002H47.5238V62.7062ZM44.6475 23.2689V63.8112H48.2714V23.2689H44.6475Z" fill="#1B1C28"/>
<path d="M48.2715 23.2689V63.8112H48.542V23.2689H48.2715Z" fill="white"/>
<path d="M84.3112 20.4386C83.6847 20.4386 83.1792 20.9519 83.1792 21.5792C83.1792 22.2066 83.6847 22.7127 84.3112 22.7127C84.9378 22.7127 85.4433 22.2066 85.4433 21.5792C85.4433 20.9519 84.9378 20.4386 84.3112 20.4386Z" fill="#3BBEC5"/>
<path d="M87.2946 20.4386C86.6681 20.4386 86.1626 20.9519 86.1626 21.5792C86.1626 22.2066 86.6681 22.7127 87.2946 22.7127C87.9212 22.7127 88.4267 22.2066 88.4267 21.5792C88.4267 20.9519 87.9212 20.4386 87.2946 20.4386Z" fill="#3BBEC5"/>
<path d="M90.2491 20.4386C89.6226 20.4386 89.1171 20.9519 89.1171 21.5792C89.1171 22.2066 89.6226 22.7127 90.2491 22.7127C90.8756 22.7127 91.3811 22.2066 91.3811 21.5792C91.3811 20.9519 90.8756 20.4386 90.2491 20.4386Z" fill="#3BBEC5"/>
<path d="M45.5303 24.8158H47.5238V24.2027H45.5303V24.8158Z" fill="white"/>
<path d="M45.5303 26.812H47.5238V26.1989H45.5303V26.812Z" fill="white"/>
<path d="M45.5303 28.8008H47.5238V28.1949H45.5303V28.8008Z" fill="white"/>
<path d="M45.5303 30.797H47.5238V30.191H45.5303V30.797Z" fill="white"/>
<path d="M45.5303 32.7931H47.5238V32.1872H45.5303V32.7931Z" fill="white"/>
<path d="M45.5303 34.7892H47.5238V34.1761H45.5303V34.7892Z" fill="white"/>
<path d="M45.5303 36.7781H47.5238V36.1721H45.5303V36.7781Z" fill="white"/>
<path d="M45.5303 38.7743H47.5238V38.1683H45.5303V38.7743Z" fill="white"/>
<path d="M45.5303 40.7704H47.5238V40.1573H45.5303V40.7704Z" fill="white"/>
<path d="M45.5303 42.7665H47.5238V42.1534H45.5303V42.7665Z" fill="white"/>
<path d="M45.5303 44.7554H47.5238V44.1495H45.5303V44.7554Z" fill="white"/>
<path d="M45.5303 46.7516H47.5238V46.1456H45.5303V46.7516Z" fill="white"/>
<path d="M45.5303 48.7476H47.5238V48.1346H45.5303V48.7476Z" fill="white"/>
<path d="M45.5303 50.7438H47.5238V50.1307H45.5303V50.7438Z" fill="white"/>
<path d="M45.5303 52.7327H47.5238V52.1267H45.5303V52.7327Z" fill="white"/>
<path d="M45.5303 54.7289H47.5238V54.1229H45.5303V54.7289Z" fill="white"/>
<path d="M45.5303 56.725H47.5238V56.1119H45.5303V56.725Z" fill="white"/>
<path d="M45.5303 58.714H47.5238V58.1081H45.5303V58.714Z" fill="white"/>
<path d="M45.5303 60.71H47.5238V60.104H45.5303V60.71Z" fill="white"/>
<path d="M45.5303 62.7061H47.5238V62.1002H45.5303V62.7061Z" fill="white"/>
<path d="M57.3561 24.2027H49.6241V24.8158H57.3561V24.2027Z" fill="#ED3947"/>
<path d="M65.4015 46.445H57.6696V47.0581H65.4015V46.445Z" fill="#ED3947"/>
<path d="M60.5958 44.7554V44.1495H57.6696V44.7554H60.5958Z" fill="#ED3947"/>
<path d="M52.5503 26.1989H49.6241V26.812H52.5503V26.1989Z" fill="#3BBEC5"/>
<path d="M49.6241 28.8008H53.96V28.1949H49.6241V28.8008Z" fill="#3BBEC5"/>
<path d="M54.7075 28.1949V28.8008H56.1955V28.1949H54.7075Z" fill="#00ADEF"/>
<path d="M60.6526 48.7476V48.1346H57.7192V48.7476H60.6526Z" fill="#3BBEC5"/>
<path d="M57.7192 50.7438H62.0623V50.1307H57.7192V50.7438Z" fill="#3BBEC5"/>
<path d="M64.2979 50.1307H62.8027V50.7438H64.2979V50.1307Z" fill="#00ADEF"/>
<path d="M60.6526 58.7994H57.7192V59.4125H60.6526V58.7994Z" fill="#3BBEC5"/>
<path d="M57.7192 61.4016H62.0623V60.7956H57.7192V61.4016Z" fill="#3BBEC5"/>
<path d="M62.8027 61.4016H64.2979V60.7956H62.8027V61.4016Z" fill="#00ADEF"/>
<path d="M49.6241 38.7743H53.96V38.1683H49.6241V38.7743Z" fill="#3BBEC5"/>
<path d="M54.7075 38.7743H56.1955V38.1683H54.7075V38.7743Z" fill="#00ADEF"/>
<path d="M60.4534 24.2027H58.4598V24.8158H60.4534V24.2027Z" fill="#80CC28"/>
<path d="M63.1586 40.7703H54.7075V41.3763H63.1586V40.7703Z" fill="#80CC28"/>
<path d="M54.7075 30.797H63.4078V30.191H54.7075V30.797Z" fill="white"/>
<path d="M80.4026 30.191H67.8008V30.797H80.4026V30.191Z" fill="white"/>
<path d="M66.4764 30.191H64.2408V30.797H66.4764V30.191Z" fill="white"/>
<path d="M56.6155 34.4827H65.3157V33.8696H56.6155V34.4827Z" fill="white"/>
<path d="M69.7087 34.4827H82.3106V33.8696H69.7087V34.4827Z" fill="white"/>
<path d="M66.1417 34.4827H68.3844V33.8696H66.1417V34.4827Z" fill="white"/>
<path d="M56.6155 31.8806V32.4865H62.1688V31.8806H56.6155Z" fill="white"/>
<path d="M65.3161 31.8806H63.1588V32.4865H65.3161V31.8806Z" fill="white"/>
<path d="M74.1016 32.4865V31.8806H69.7087V32.4865H74.1016Z" fill="white"/>
<path d="M68.3844 31.8806H66.1417V32.4865H68.3844V31.8806Z" fill="white"/>
<path d="M56.6155 36.7781H69.3811V36.1721H56.6155V36.7781Z" fill="white"/>
<path d="M70.1218 36.7781H79.9043V36.1721H70.1218V36.7781Z" fill="white"/>
<path d="M69.2676 53.2746H63.7142V53.8877H69.2676V53.2746Z" fill="white"/>
<path d="M70.2642 53.8877H72.4143V53.2746H70.2642V53.8877Z" fill="white"/>
<path d="M76.8073 53.2746V53.8877H76.9639C76.9995 53.6453 77.0636 53.4599 77.1561 53.2746H76.8073Z" fill="white"/>
<path d="M73.2473 53.8877H75.4829V53.2746H73.2473V53.8877Z" fill="white"/>
<path d="M63.7142 56.1118H71.1187V55.5059H63.7142V56.1118Z" fill="white"/>
<path d="M71.8948 55.5059V56.1118H76.9142C76.9142 55.8908 76.907 55.6912 76.907 55.5059H71.8948Z" fill="white"/>
<path d="M63.7142 58.108H66.9181V57.502H63.7142V58.108Z" fill="white"/>
<path d="M67.8578 58.108H71.1186V57.502H67.8578V58.108Z" fill="white"/>
<path d="M71.8948 57.502V58.108H78.3879C78.1103 57.9084 77.854 57.7088 77.6404 57.502H71.8948Z" fill="white"/>
<path d="M99.5119 38.1684H101.505V38.7743H99.5119V38.1684ZM99.5119 28.195H101.505V28.8009H99.5119V28.195ZM99.5119 26.206H100.858V26.812H99.5119V26.206ZM99.5119 24.2099H103.065V24.8159H99.5119V24.2099ZM103.57 24.2099H104.489V24.8159H103.57V24.2099ZM101.847 28.8009V28.195H102.531V28.8009H101.847ZM105.841 30.797H101.847V30.1911H105.841V30.797ZM106.226 30.1911H107.251V30.797H106.226V30.1911ZM107.863 30.1911H113.652V30.797H107.863V30.1911ZM108.739 32.4866V31.8806H110.754V32.4866H108.739ZM114.527 34.4827H108.739V33.8767H114.527V34.4827ZM114.513 56.1119H109.743V55.506H114.513V56.1119ZM114.513 58.108H113.652V57.5021H114.513V58.108ZM113.317 58.108H109.743V57.5021H113.317V58.108ZM109.985 53.2746V53.8877H108.995V53.2746H109.985ZM111.395 53.2746V53.8877H110.362V53.2746H111.395ZM114.022 53.2746V53.8877H112V53.2746H114.022ZM113.424 36.7782H108.931V36.1723H113.424V36.7782ZM109.387 56.1119H105.984V55.506H109.387V56.1119ZM109.387 58.108H107.885V57.5021H109.387V58.108ZM107.457 58.108H105.984V57.5021H107.457V58.108ZM106.254 61.4016H105.564V60.7956H106.254V61.4016ZM105.222 50.7438H103.228V50.1307H105.222V50.7438ZM105.222 61.4016H103.228V60.7956H105.222V61.4016ZM103.228 58.7995H104.574V59.4126H103.228V58.7995ZM104.574 48.1346V48.7477H103.228V48.1346H104.574ZM103.207 46.4451H106.76V47.0582H103.207V46.4451ZM104.553 44.1496V44.7555H103.207V44.1496H104.553ZM105.564 50.7438V50.1307H106.254V50.7438H105.564ZM105.984 53.2746H108.533V53.8877H105.984V53.2746ZM107.101 32.4866V31.8806H108.127V32.4866H107.101ZM108.127 33.8767V34.4827H107.101V33.8767H108.127ZM108.582 36.1723V36.7782H102.723V36.1723H108.582ZM105.727 32.4866V31.8806H106.717V32.4866H105.727ZM102.723 32.4866V31.8806H105.272V32.4866H102.723ZM106.717 33.8767V34.4827H102.723V33.8767H106.717ZM101.847 38.7743V38.1684H102.531V38.7743H101.847ZM105.727 40.7704V41.3835H101.847V40.7704H105.727ZM115.496 63.8112C115.752 62.0004 115.994 60.2538 116.179 58.6427C116.507 55.7341 117.817 51.5209 119.625 48.32V23.2689H98.4297V63.8112H115.496Z" fill="#223150"/>
<path d="M97.4116 24.8159H95.4181V24.2099H97.4116V24.8159ZM97.4116 26.812H95.4181V26.206H97.4116V26.812ZM97.4116 28.8009H95.4181V28.195H97.4116V28.8009ZM97.4116 30.797H95.4181V30.1911H97.4116V30.797ZM97.4116 32.7931H95.4181V32.1872H97.4116V32.7931ZM97.4116 34.7893H95.4181V34.1762H97.4116V34.7893ZM97.4116 36.7782H95.4181V36.1723H97.4116V36.7782ZM97.4116 38.7743H95.4181V38.1684H97.4116V38.7743ZM97.4116 40.7704H95.4181V40.1573H97.4116V40.7704ZM97.4116 42.7665H95.4181V42.1535H97.4116V42.7665ZM97.4116 44.7555H95.4181V44.1496H97.4116V44.7555ZM97.4116 46.7516H95.4181V46.1457H97.4116V46.7516ZM97.4116 48.7477H95.4181V48.1346H97.4116V48.7477ZM97.4116 50.7438H95.4181V50.1307H97.4116V50.7438ZM97.4116 52.7328H95.4181V52.1268H97.4116V52.7328ZM97.4116 54.7289H95.4181V54.123H97.4116V54.7289ZM97.4116 56.725H95.4181V56.1119H97.4116V56.725ZM97.4116 58.7211H95.4181V58.108H97.4116V58.7211ZM97.4116 60.7101H95.4181V60.1041H97.4116V60.7101ZM97.4116 62.7062H95.4181V62.1002H97.4116V62.7062ZM98.1592 23.2689H94.5353V62.421C95.0123 62.8488 95.5605 63.3193 96.1657 63.8112H98.1592V23.2689Z" fill="#223150"/>
<path d="M98.4297 63.8112V23.2689H98.1592V63.8112H98.4297Z" fill="white"/>
<path d="M103.741 68.9582H114.762C114.912 67.8675 115.068 66.791 115.225 65.7288H98.6433C100.16 66.8338 101.883 67.9602 103.741 68.9582Z" fill="#323660"/>
<path d="M40.2616 14.8139H40.2332V68.9582H73.6744L71.7592 77.955C71.7592 77.955 71.4815 79.3237 71.3177 80.2861C71.2679 80.5642 71.2537 80.7994 71.2465 81.0275H90.0212C89.7934 79.6659 90.1778 77.955 90.1778 77.955L90.3131 77.3347C87.6432 75.0036 86.9099 73.1215 85.8846 69.6355C85.8206 69.4145 85.7565 69.1864 85.6995 68.9582C85.4147 67.896 85.2012 66.8124 85.073 65.7288H42.7962V18.0433H121.618V45.5183C121.946 45.169 122.281 44.8553 122.629 44.5986C122.985 44.3634 123.534 43.9784 124.181 43.5222V14.8139H40.2616Z" fill="#323660"/>
<path d="M84.3113 20.4386C84.9378 20.4386 85.4433 20.9519 85.4433 21.5793C85.4433 22.1995 84.9378 22.7128 84.3113 22.7128C83.6848 22.7128 83.1793 22.1995 83.1793 21.5793C83.1793 20.9519 83.6848 20.4386 84.3113 20.4386ZM87.2944 20.4386C87.921 20.4386 88.4265 20.9519 88.4265 21.5793C88.4265 22.1995 87.921 22.7128 87.2944 22.7128C86.6679 22.7128 86.1624 22.1995 86.1624 21.5793C86.1624 20.9519 86.6679 20.4386 87.2944 20.4386ZM90.2491 20.4386C90.8756 20.4386 91.3811 20.9519 91.3811 21.5793C91.3811 22.1995 90.8756 22.7128 90.2491 22.7128C89.6226 22.7128 89.1171 22.1995 89.1171 21.5793C89.1171 20.9519 89.6226 20.4386 90.2491 20.4386ZM44.6475 23.2474H93.3675V19.904H44.6475V23.2474Z" fill="#323660"/>
<path d="M110.562 20.4386C111.188 20.4386 111.694 20.9519 111.694 21.5793C111.694 22.1995 111.188 22.7128 110.562 22.7128C109.935 22.7128 109.43 22.1995 109.43 21.5793C109.43 20.9519 109.935 20.4386 110.562 20.4386ZM113.545 20.4386C114.171 20.4386 114.677 20.9519 114.677 21.5793C114.677 22.1995 114.171 22.7128 113.545 22.7128C112.925 22.7128 112.413 22.1995 112.413 21.5793C112.413 20.9519 112.925 20.4386 113.545 20.4386ZM116.507 20.4386C117.133 20.4386 117.639 20.9519 117.639 21.5793C117.639 22.1995 117.133 22.7128 116.507 22.7128C115.88 22.7128 115.368 22.1995 115.368 21.5793C115.368 20.9519 115.88 20.4386 116.507 20.4386ZM94.5353 23.2474H119.625V19.904H94.5353V23.2474Z" fill="#323660"/>
<path d="M110.562 20.4386C109.935 20.4386 109.43 20.9519 109.43 21.5792C109.43 22.2066 109.935 22.7127 110.562 22.7127C111.188 22.7127 111.694 22.2066 111.694 21.5792C111.694 20.9519 111.188 20.4386 110.562 20.4386Z" fill="#3BBEC5"/>
<path d="M113.545 20.4386C112.918 20.4386 112.413 20.9519 112.413 21.5792C112.413 22.2066 112.918 22.7127 113.545 22.7127C114.171 22.7127 114.677 22.2066 114.677 21.5792C114.677 20.9519 114.171 20.4386 113.545 20.4386Z" fill="#3BBEC5"/>
<path d="M116.507 20.4386C115.88 20.4386 115.367 20.9519 115.367 21.5792C115.367 22.2066 115.88 22.7127 116.507 22.7127C117.126 22.7127 117.639 22.2066 117.639 21.5792C117.639 20.9519 117.126 20.4386 116.507 20.4386Z" fill="#3BBEC5"/>
<path d="M95.4181 24.8158H97.4116V24.2027H95.4181V24.8158Z" fill="white"/>
<path d="M95.4181 26.812H97.4116V26.1989H95.4181V26.812Z" fill="white"/>
<path d="M95.4181 28.8008H97.4116V28.1949H95.4181V28.8008Z" fill="white"/>
<path d="M95.4181 30.797H97.4116V30.191H95.4181V30.797Z" fill="white"/>
<path d="M95.4181 32.7931H97.4116V32.1872H95.4181V32.7931Z" fill="white"/>
<path d="M95.4181 34.7892H97.4116V34.1761H95.4181V34.7892Z" fill="white"/>
<path d="M95.4181 36.7781H97.4116V36.1721H95.4181V36.7781Z" fill="white"/>
<path d="M95.4181 38.7743H97.4116V38.1683H95.4181V38.7743Z" fill="white"/>
<path d="M95.4181 40.7704H97.4116V40.1573H95.4181V40.7704Z" fill="white"/>
<path d="M95.4181 42.7665H97.4116V42.1534H95.4181V42.7665Z" fill="white"/>
<path d="M95.4181 44.7554H97.4116V44.1495H95.4181V44.7554Z" fill="white"/>
<path d="M95.4181 46.7516H97.4116V46.1456H95.4181V46.7516Z" fill="white"/>
<path d="M95.4181 48.7476H97.4116V48.1346H95.4181V48.7476Z" fill="white"/>
<path d="M95.4181 50.7438H97.4116V50.1307H95.4181V50.7438Z" fill="white"/>
<path d="M95.4181 52.7327H97.4116V52.1267H95.4181V52.7327Z" fill="white"/>
<path d="M95.4181 54.7289H97.4116V54.1229H95.4181V54.7289Z" fill="white"/>
<path d="M95.4181 56.725H97.4116V56.1119H95.4181V56.725Z" fill="white"/>
<path d="M95.4181 58.714H97.4116V58.1081H95.4181V58.714Z" fill="white"/>
<path d="M95.4181 60.71H97.4116V60.104H95.4181V60.71Z" fill="white"/>
<path d="M95.4181 62.7061H97.4116V62.1002H95.4181V62.7061Z" fill="white"/>
<path d="M103.065 24.2027H99.512V24.8158H103.065V24.2027Z" fill="#ED3947"/>
<path d="M106.76 46.445H103.207V47.0581H106.76V46.445Z" fill="#ED3947"/>
<path d="M104.553 44.7554V44.1495H103.207V44.7554H104.553Z" fill="#ED3947"/>
<path d="M100.858 26.1989H99.512V26.812H100.858V26.1989Z" fill="#3BBEC5"/>
<path d="M101.505 28.1949H99.512V28.8008H101.505V28.1949Z" fill="#3BBEC5"/>
<path d="M101.847 28.1949V28.8008H102.531V28.1949H101.847Z" fill="#00ADEF"/>
<path d="M104.574 48.7476V48.1346H103.229V48.7476H104.574Z" fill="#3BBEC5"/>
<path d="M103.229 50.7438H105.222V50.1307H103.229V50.7438Z" fill="#3BBEC5"/>
<path d="M106.254 50.1307H105.564V50.7438H106.254V50.1307Z" fill="#00ADEF"/>
<path d="M104.574 58.7994H103.229V59.4125H104.574V58.7994Z" fill="#3BBEC5"/>
<path d="M103.229 61.4016H105.222V60.7956H103.229V61.4016Z" fill="#3BBEC5"/>
<path d="M105.564 61.4016H106.254V60.7956H105.564V61.4016Z" fill="#00ADEF"/>
<path d="M101.505 38.1683H99.512V38.7743H101.505V38.1683Z" fill="#3BBEC5"/>
<path d="M101.847 38.1683V38.7743H102.531V38.1683H101.847Z" fill="#00ADEF"/>
<path d="M104.489 24.2027H103.57V24.8158H104.489V24.2027Z" fill="#80CC28"/>
<path d="M101.847 41.3763H105.727V40.7703H101.847V41.3763Z" fill="#80CC28"/>
<path d="M101.847 30.797H105.841V30.191H101.847V30.797Z" fill="white"/>
<path d="M113.652 30.191H107.863V30.797H113.652V30.191Z" fill="white"/>
<path d="M107.251 30.191H106.226V30.797H107.251V30.191Z" fill="white"/>
<path d="M102.723 34.4827H106.724V33.8696H102.723V34.4827Z" fill="white"/>
<path d="M108.739 34.4827H114.527V33.8696H108.739V34.4827Z" fill="white"/>
<path d="M107.101 34.4827H108.127V33.8696H107.101V34.4827Z" fill="white"/>
<path d="M102.723 31.8806V32.4865H105.272V31.8806H102.723Z" fill="white"/>
<path d="M106.724 31.8806H105.727V32.4865H106.724V31.8806Z" fill="white"/>
<path d="M108.739 31.8806V32.4865H110.754V31.8806H108.739Z" fill="white"/>
<path d="M108.127 31.8806H107.101V32.4865H108.127V31.8806Z" fill="white"/>
<path d="M102.723 36.7781H108.582V36.1721H102.723V36.7781Z" fill="white"/>
<path d="M108.931 36.7781H113.424V36.1721H108.931V36.7781Z" fill="white"/>
<path d="M108.54 53.2746H105.984V53.8877H108.54V53.2746Z" fill="white"/>
<path d="M109.985 53.8877V53.2746H108.995V53.8877H109.985Z" fill="white"/>
<path d="M112 53.8877H114.022V53.2746H112V53.8877Z" fill="white"/>
<path d="M111.395 53.8877V53.2746H110.362V53.8877H111.395Z" fill="white"/>
<path d="M105.984 56.1118H109.387V55.5059H105.984V56.1118Z" fill="white"/>
<path d="M109.743 56.1118H114.513V55.5059H109.743V56.1118Z" fill="white"/>
<path d="M105.984 58.108H107.458V57.502H105.984V58.108Z" fill="white"/>
<path d="M107.885 58.108H109.387V57.502H107.885V58.108Z" fill="white"/>
<path d="M113.652 58.108H114.513V57.502H113.652V58.108Z" fill="white"/>
<path d="M109.743 58.108H113.317V57.502H109.743V58.108Z" fill="white"/>
<path d="M102.296 86.0391C101.797 85.6471 100.508 84.8344 98.8638 83.7793C98.4224 83.5012 97.9596 83.2018 97.4826 82.8882H57.9398V88.1707H105.984C105.571 87.964 105.122 87.7358 104.674 87.4935C103.755 87.0016 102.851 86.474 102.296 86.0391Z" fill="#DFB38F"/>
<path d="M179.131 82.8882C178.953 84.649 178.768 86.4099 178.583 88.1707H192.609V82.8882H179.131Z" fill="#DFB38F"/>
<path d="M53.1769 88.1707H57.94V82.8882H9.39075V88.1707H53.1769Z" fill="#C58062"/>
<mask id="mask3_43_1133" style="mask-type:luminance" maskUnits="userSpaceOnUse" x="175" y="87" width="28" height="96">
<path d="M175.743 87.8357H202V183H175.743V87.8357Z" fill="white"/>
</mask>
<g mask="url(#mask3_43_1133)">
<path d="M192.609 88.1708H187.846L189.462 104.532H176.953C176.803 106.129 176.675 107.726 176.554 109.33H189.932L197.187 183H201.943L192.609 88.1708Z" fill="#27294A"/>
</g>
<path d="M148.78 136.149L152.959 178.609L157.872 180.156L153.543 136.149H148.78Z" fill="#27294A"/>
<mask id="mask4_43_1133" style="mask-type:luminance" maskUnits="userSpaceOnUse" x="0" y="87" width="60" height="96">
<path d="M0 87.8357H59.0935V183H0V87.8357Z" fill="white"/>
</mask>
<g mask="url(#mask4_43_1133)">
<path d="M51.5679 104.532H12.5378L14.1468 88.1708H9.39085L0.0498047 183H4.81288L12.0679 109.33H51.098L44.0851 180.505C44.2204 180.384 44.3557 180.27 44.5194 180.156L49.012 178.887L57.9401 88.1708H53.177L51.5679 104.532Z" fill="#27294A"/>
</g>
<mask id="mask5_43_1133" style="mask-type:luminance" maskUnits="userSpaceOnUse" x="73" y="171" width="32" height="12">
<path d="M73.6746 171.786H104.659V183H73.6746V171.786Z" fill="white"/>
</mask>
<g mask="url(#mask5_43_1133)">
<path d="M89.5515 176.078L76.1665 180.155C74.294 181.46 74.8992 183 74.8992 183H103.1L101.1 172.912L93.8518 171.893L89.5515 176.078Z" fill="#14172C"/>
</g>
<path d="M98.4081 134.865L98.0806 135.899C98.2159 135.949 98.2942 136.099 98.2443 136.234C97.4042 138.772 97.1622 139.72 96.5143 141.445C95.6955 143.62 94.8554 146.92 94.1007 149.145C92.6269 153.493 91.025 159.132 89.2023 164.386C89.1596 164.522 89.0101 164.6 88.8748 164.55L88.2697 166.432C88.2697 166.432 90.6975 168.165 94.1648 169.769C96.2651 170.745 98.757 171.672 101.313 172.15C101.612 172.2 101.911 172.25 102.21 172.292L118.578 136.149H101.349C100.188 136.149 99.1485 135.657 98.4081 134.865Z" fill="#1C213F"/>
<mask id="mask6_43_1133" style="mask-type:luminance" maskUnits="userSpaceOnUse" x="42" y="171" width="32" height="12">
<path d="M42.6895 171.786H73.6744V183H42.6895V171.786Z" fill="white"/>
</mask>
<g mask="url(#mask6_43_1133)">
<path d="M58.9224 176.078L49.0118 178.887L44.5193 180.155C44.3555 180.27 44.2202 180.384 44.085 180.505C42.7607 181.717 43.252 183 43.252 183H72.4712L70.4706 172.912L63.2227 171.893L58.9224 176.078Z" fill="#232950"/>
</g>
<path d="M128.824 105.095C126.887 105.009 119.184 104.439 116.77 102.022C116.727 102.058 116.67 102.093 116.606 102.093C110.006 102.535 103.292 103.17 97.6393 103.384C95.8167 103.448 93.9584 103.419 92.1144 103.476L89.231 103.669C89.1526 103.669 89.0814 103.676 89.0031 103.676C87.7287 103.812 86.4756 104.047 85.2653 104.425C81.5275 105.587 79.3915 108.267 77.8679 111.504C76.3514 114.747 75.4899 118.526 74.3294 121.798C72.5495 126.788 70.6272 131.736 68.7761 136.69C67.4874 140.148 64.7107 147.063 62.4111 154.071C62.3612 154.213 62.2117 154.292 62.0764 154.242C62.0693 154.242 62.0693 154.242 62.0622 154.242L57.6409 166.432C57.6409 166.432 60.0687 168.157 63.536 169.769C65.6434 170.745 68.1282 171.672 70.6913 172.15C70.9832 172.2 71.2822 172.249 71.5812 172.292L97.3261 124.685H99.2484C99.8607 124.307 100.58 124.086 101.349 124.086H128.966C131.949 120.066 132.576 112.651 133.195 107.768C133.231 107.533 133.245 107.283 133.273 107.034C132.099 105.95 130.717 105.18 128.824 105.095Z" fill="#29315E"/>
<path d="M148.602 14.0012C148.567 11.4419 148.225 6.06667 144.515 5.19694C142.223 4.66227 142.458 5.78865 141.212 4.99733C138.271 3.12242 134.555 3.69273 132.91 3.57154C128.382 -5.88894e-05 126.716 4.99733 126.716 4.99733C123.427 5.532 124.046 8.46913 124.046 8.46913C124.011 9.47431 121.106 9.53847 122.9 12.6182C123.505 13.6661 125.492 13.5877 127.556 14.0226C129.614 14.4574 131.757 15.3985 132.704 18.4853C132.903 19.1483 133.003 19.077 133.095 18.6421C132.789 17.5015 132.782 16.1042 133.701 15.2202C133.964 14.9636 134.27 14.8139 134.591 14.7355C134.697 14.6713 134.811 14.6214 134.932 14.5858C135.879 14.3291 136.655 14.764 137.225 15.4769C137.438 15.6551 137.616 15.8476 137.73 16.0472C138.506 17.3161 138.499 19.241 137.424 20.5456C137.204 20.8165 136.976 21.0161 136.755 21.1587C137.339 22.7698 138.998 25.9065 139.667 27.0899C139.752 27.2468 139.831 27.3822 139.881 27.4606C140.543 28.5514 144.501 28.2448 146.801 27.4107C148.987 26.6194 148.602 24.4166 148.602 23.7179C148.602 18.7277 148.688 19.7685 148.602 14.0012Z" fill="#451A29"/>
<path d="M136.371 19.7044C136.292 19.683 136.221 19.6474 136.15 19.6117C135.78 19.4264 135.466 19.0985 135.239 18.6778C135.139 18.4925 135.061 18.2929 134.996 18.0861C134.918 18.1574 134.804 18.1788 134.705 18.136C134.569 18.0719 134.512 17.915 134.569 17.7796C134.633 17.6299 134.733 17.5087 134.847 17.3946C134.833 17.2877 134.826 17.1736 134.826 17.0667C134.826 16.8742 134.847 16.7031 134.883 16.5534C134.911 16.4607 134.932 16.3823 134.975 16.3182C135.039 16.1827 134.989 16.0259 134.861 15.9546C134.733 15.8833 134.569 15.9332 134.505 16.0687C134.349 16.3467 134.292 16.696 134.292 17.0667C134.292 17.6655 134.455 18.3428 134.769 18.9345C135.082 19.5191 135.566 20.0252 136.221 20.2177C136.363 20.2605 136.513 20.1821 136.549 20.0395C136.591 19.8969 136.513 19.7472 136.371 19.7044Z" fill="#592630"/>
<path d="M134.847 17.3946C134.733 17.5087 134.64 17.6298 134.569 17.7795C134.512 17.915 134.576 18.0718 134.705 18.1289C134.804 18.1788 134.918 18.1574 134.996 18.0861C135.025 18.0576 135.046 18.0291 135.061 17.9934C135.11 17.8865 135.21 17.7724 135.345 17.6726C135.409 17.6298 135.473 17.5871 135.545 17.5443C135.78 17.4231 136.057 17.3304 136.285 17.2877C136.435 17.2591 136.527 17.1237 136.499 16.974C136.47 16.8314 136.328 16.7387 136.185 16.7672C135.915 16.8171 135.587 16.9169 135.295 17.0738C135.239 17.1023 135.189 17.1379 135.139 17.1665C135.039 17.2306 134.932 17.309 134.847 17.3946Z" fill="#592630"/>
<path d="M136.314 36.2791C140.927 36.2791 145.726 36.1651 149.77 34.1119C149.905 34.0478 149.955 33.8838 149.891 33.7555C149.82 33.62 149.663 33.5701 149.528 33.6343C145.633 35.6161 140.92 35.7444 136.314 35.7444C136.164 35.7444 136.043 35.8656 136.043 36.0153C136.043 36.1579 136.164 36.2791 136.314 36.2791Z" fill="#1D1E32"/>
<path d="M131.387 56.2545C131.387 57.2882 131.316 58.3433 131.194 59.3627C131.216 59.3413 131.237 59.3199 131.259 59.2985C131.301 59.2629 131.351 59.2273 131.394 59.1916C131.522 59.0775 131.65 58.9635 131.785 58.8637C131.871 58.0011 131.921 57.1171 131.921 56.2545C131.921 56.0121 131.906 55.7768 131.899 55.5416C131.857 54.1015 131.693 52.7114 131.365 51.4924C131.038 50.259 130.269 48.3485 129.201 46.6661C129.137 46.5591 129.066 46.4664 129.002 46.3666C128.517 45.6395 127.976 44.9622 127.378 44.4204C126.702 43.8073 125.954 43.3654 125.15 43.237C125 43.2156 124.865 43.3083 124.844 43.458C124.815 43.6006 124.915 43.7432 125.064 43.7646C125.734 43.8715 126.396 44.2493 127.022 44.8197C127.371 45.1333 127.713 45.5112 128.033 45.9175C129.422 47.714 130.475 50.202 130.853 51.6349C131.216 52.9823 131.387 54.5934 131.387 56.2545Z" fill="#1D1E32"/>
<path d="M164.444 43.0872C164.444 44.8267 164.501 46.5448 164.501 48.3056V48.3199C164.501 48.7975 164.508 49.2752 164.508 49.7528C164.508 51.3853 164.437 53.0107 163.846 54.465C163.739 54.7359 163.632 54.9783 163.525 55.2136C163.718 55.2278 163.903 55.235 164.095 55.2492C164.173 55.0639 164.251 54.8714 164.337 54.6718C164.971 53.0963 165.042 51.3996 165.042 49.7528C165.042 49.268 165.035 48.7904 165.035 48.3199V48.3056C165.035 46.5305 164.978 44.8125 164.978 43.0872C164.978 42.3815 164.992 41.6757 165.02 40.9628C165.028 40.7989 165.028 40.642 165.035 40.4781C165.042 40.3355 164.928 40.2072 164.778 40.2C164.629 40.1929 164.508 40.307 164.501 40.4567C164.501 40.4709 164.501 40.4852 164.501 40.4994C164.458 41.3692 164.444 42.2318 164.444 43.0872Z" fill="#1D1E32"/>
<path d="M93.8519 171.893L101.1 172.913L101.313 172.15C98.7574 171.672 96.2655 170.745 94.1652 169.769L93.8519 171.893Z" fill="#F78E8C"/>
<path d="M63.2229 171.893L70.4708 172.913L70.6915 172.15C68.1284 171.672 65.6436 170.745 63.5362 169.769L63.2229 171.893Z" fill="#F78E8C"/>
<path d="M134.505 16.0686C134.569 15.9331 134.733 15.8832 134.861 15.9545C134.989 16.0258 135.039 16.1826 134.975 16.3181C134.94 16.3822 134.911 16.4607 134.89 16.5533C134.847 16.7031 134.826 16.8741 134.826 17.0666C134.826 17.1736 134.833 17.2876 134.847 17.3946C134.932 17.309 135.039 17.2377 135.139 17.1664C135.189 17.1379 135.239 17.1023 135.296 17.0738C135.595 16.9169 135.915 16.8171 136.186 16.7672C136.328 16.7387 136.47 16.8314 136.499 16.974C136.527 17.1237 136.435 17.2591 136.285 17.2876C136.057 17.3375 135.78 17.4231 135.545 17.5443C135.474 17.587 135.409 17.6298 135.345 17.6726C135.21 17.7724 135.103 17.8865 135.061 17.9934C135.046 18.029 135.018 18.0576 134.997 18.0861C135.061 18.2857 135.139 18.4924 135.239 18.6778C135.466 19.0984 135.78 19.4263 136.15 19.6117C136.221 19.6473 136.292 19.6829 136.371 19.7043C136.513 19.7471 136.591 19.8968 136.549 20.0394C136.513 20.182 136.363 20.2604 136.221 20.2176C135.559 20.0251 135.082 19.519 134.769 18.9344C134.455 18.3427 134.292 17.6655 134.292 17.0666C134.292 16.6959 134.349 16.3466 134.505 16.0686ZM146.801 27.4107C144.501 28.2519 140.543 28.5514 139.881 27.4606C139.831 27.3822 139.752 27.2468 139.667 27.0899C138.998 25.9065 137.339 22.7698 136.755 21.1658C136.976 21.0161 137.204 20.8165 137.424 20.5456C138.499 19.241 138.507 17.3161 137.73 16.0472C137.609 15.8476 137.439 15.6551 137.225 15.4769C136.655 14.764 135.879 14.3291 134.932 14.5858C134.804 14.6214 134.697 14.6713 134.591 14.7355C134.27 14.8139 133.964 14.9636 133.701 15.2202C132.782 16.1042 132.789 17.5015 133.096 18.6421C133.003 19.077 132.903 19.1554 132.704 18.4853C131.757 15.3985 129.614 14.4574 127.556 14.0226C127.556 14.158 127.556 14.2935 127.564 14.4289C127.585 14.764 127.592 15.8476 127.642 16.1898L128.375 17.8865C128.525 18.9914 126.716 22.9908 126.716 22.9908C126.809 23.832 129.201 23.2973 129.422 24.1243C130.169 26.8761 130.675 31.5384 133.978 30.5475C134.797 30.3051 135.53 30.0627 136.178 29.8346L136.776 33.8767C138.122 32.9998 140.201 33.0426 141.71 32.736C143.355 32.3939 146.58 31.7309 148.175 31.7166L146.801 27.4107Z" fill="#F78E8C"/>
<path d="M83.3077 50.3446C83.1582 50.1093 83.03 49.9596 82.9161 49.8598L78.4164 43.622C78.4164 43.622 75.8818 44.2565 80.4812 50.1521L79.3491 50.5157C78.0605 52.2124 77.4482 52.7114 77.1563 53.2746C77.0637 53.4599 76.9996 53.6453 76.964 53.8877C76.9071 54.2584 76.8999 54.7431 76.9071 55.5059C76.9071 55.6913 76.9142 55.8909 76.9142 56.1119C76.9142 56.119 76.9142 56.1261 76.9142 56.1333C76.9213 56.6038 77.199 57.06 77.6404 57.502C77.854 57.7088 78.1103 57.9084 78.388 58.108C80.474 59.5694 84.1336 60.6815 85.1588 61.0309C85.4792 59.3841 86.1484 57.9084 87.2947 56.7749L87.5724 56.9745C87.0313 55.4133 86.2552 53.8948 85.9348 53.3031C85.4365 52.412 84.1122 51.6207 83.3077 50.3446Z" fill="#F78E8C"/>
<path d="M169.556 51.1144C169.036 49.0898 167.954 45.6109 166.288 43.1657C165.967 42.2817 165.547 41.526 165.02 40.9628C164.992 41.6757 164.978 42.3815 164.978 43.0873C164.978 44.8125 165.035 46.5305 165.035 48.3056V48.3199C165.035 48.7904 165.042 49.2681 165.042 49.7528C165.042 51.3996 164.97 53.0963 164.337 54.6718C164.251 54.8714 164.173 55.0639 164.095 55.2492C164.913 55.292 165.739 55.3419 166.558 55.3989C167.007 55.4275 167.455 55.456 167.897 55.4845C168.609 55.5344 169.349 55.5843 170.104 55.6627C170.047 54.1157 169.926 52.5759 169.556 51.1144Z" fill="#D1AE66"/>
<path d="M129.771 77.677C129.507 78.4825 129.244 79.2881 128.987 80.1008C128.396 81.9757 128.105 83.9647 127.428 85.8824C126.794 87.6718 125.477 89.6964 124.089 90.9867C124.075 90.9938 124.061 91.0081 124.053 91.0152C124.075 92.5408 123.42 94.2019 122.807 95.535C122.266 96.7326 121.583 97.8733 120.771 98.8998C120.266 99.5414 116.991 100.832 116.585 101.566C116.727 101.559 116.841 101.666 116.855 101.808C116.863 101.894 116.827 101.965 116.77 102.022C119.184 104.439 126.887 105.009 128.824 105.095C130.717 105.18 132.099 105.95 133.273 107.034C133.907 101.217 133.373 94.7294 132.383 89.0548C131.693 85.0839 130.924 81.4339 129.771 77.677Z" fill="#D1AE66"/>
<path d="M136.314 35.7445C140.92 35.7445 145.633 35.6162 149.528 33.6344C149.663 33.5702 149.82 33.6201 149.891 33.7556C149.955 33.8839 149.905 34.0478 149.77 34.112C145.726 36.1651 140.927 36.2792 136.314 36.2792C136.164 36.2792 136.043 36.158 136.043 36.0154C136.043 35.8657 136.164 35.7445 136.314 35.7445ZM164.501 48.32V48.3057C164.501 46.5449 164.444 44.8268 164.444 43.0873C164.444 42.2319 164.458 41.3693 164.501 40.4995C164.401 40.4282 164.294 40.357 164.187 40.2999L148.175 31.7167C146.58 31.7309 143.355 32.3939 141.71 32.7361C140.201 33.0427 138.122 32.9999 136.776 33.8767C136.705 33.9195 136.634 33.9552 136.57 34.0051C135.31 34.9746 133.701 36.2578 131.65 37.9973C130.44 39.0238 126.595 41.8255 124.182 43.5222C123.534 43.9785 122.986 44.3634 122.63 44.5987C122.281 44.8553 121.946 45.169 121.619 45.5183C120.907 46.274 120.237 47.2364 119.625 48.32C117.817 51.5209 116.507 55.7341 116.179 58.6427C115.994 60.2538 115.752 62.0004 115.496 63.8112C115.41 64.4457 115.318 65.0801 115.225 65.7289C115.069 66.7911 114.912 67.8676 114.762 68.9583C114.627 69.9136 114.499 70.876 114.371 71.8384C114.663 71.8384 114.94 71.8384 115.225 71.8384C116.599 71.8384 117.973 71.8669 119.283 72.0309C119.426 72.0522 119.533 72.1877 119.511 72.3303C119.497 72.48 119.362 72.5798 119.212 72.5655C118.906 72.5228 118.593 72.4942 118.272 72.4657C117.283 72.3873 116.257 72.373 115.225 72.373C114.257 72.373 113.274 72.3873 112.313 72.3873C112.164 72.3873 112.043 72.2661 112.043 72.1164C112.043 72.0665 112.064 72.0166 112.092 71.9738C109.173 71.4891 106.326 70.3484 103.741 68.9583C101.883 67.9602 100.16 66.8339 98.6434 65.7289C97.7392 65.073 96.9062 64.4243 96.1657 63.8112C95.5605 63.3193 95.0123 62.8488 94.5353 62.421C94.0868 62.0218 93.6952 61.6582 93.3677 61.3517C92.6699 60.6958 92.2784 60.2824 92.2784 60.2824L87.5722 56.9745L87.2946 56.7749C86.1483 57.9084 85.4791 59.3841 85.1587 61.0309C84.9878 61.9149 84.9237 62.8559 84.938 63.8112C84.9451 64.4457 84.9949 65.0873 85.0732 65.7289C85.2014 66.8125 85.415 67.8961 85.6998 68.9583C85.7567 69.1864 85.8208 69.4145 85.8849 69.6355C86.9101 73.1216 87.6434 75.0036 90.3133 77.3348C90.4415 77.4489 90.5625 77.5558 90.6978 77.6699C91.5023 78.3328 92.3211 78.9816 93.1612 79.6232C93.2466 79.5091 93.4104 79.4806 93.5243 79.5662C95.4965 80.9706 97.5042 82.2752 99.1489 83.3302C100.801 84.3924 102.075 85.1909 102.623 85.6186C103.129 86.0107 104.019 86.5383 104.93 87.023C105.841 87.5149 106.767 87.964 107.365 88.2349C109.152 89.0263 111.032 90.1455 112.947 91.058C114.2 91.6568 115.467 92.163 116.72 92.4482C116.863 92.4624 116.998 92.4695 117.133 92.4767C117.254 92.5194 117.382 92.5551 117.511 92.5907C117.902 92.6406 118.301 92.6834 118.692 92.6834C120.401 92.6763 122.074 92.1202 123.726 90.5946C123.826 90.502 123.918 90.4021 124.018 90.3023C125.228 89.0762 126.382 87.2654 126.923 85.7042C127.578 83.8506 127.87 81.8688 128.482 79.9369C128.81 78.8818 129.166 77.8338 129.486 76.7787C129.457 76.6789 129.429 76.5863 129.393 76.4793C127.984 72.1592 127.186 67.7606 128.66 63.3906C128.753 63.1197 128.859 62.8559 128.959 62.6064C128.995 62.5208 129.037 62.4424 129.073 62.364C129.144 62.1929 129.222 62.0289 129.308 61.8721C129.351 61.7866 129.4 61.701 129.45 61.6083C129.529 61.4729 129.607 61.3303 129.692 61.1949C129.742 61.1093 129.799 61.0309 129.849 60.9453C129.942 60.817 130.027 60.6887 130.127 60.5604C130.177 60.4891 130.233 60.4107 130.29 60.3394C130.397 60.2111 130.504 60.0827 130.618 59.9544C130.668 59.9045 130.71 59.8475 130.76 59.7905C130.903 59.6408 131.045 59.4982 131.195 59.3627C131.316 58.3433 131.387 57.2882 131.387 56.2545C131.387 54.5935 131.216 52.9823 130.853 51.6349C130.476 50.202 129.422 47.714 128.033 45.9175C127.713 45.5112 127.371 45.1333 127.022 44.8197C126.396 44.2494 125.734 43.8715 125.065 43.7646C124.915 43.7432 124.815 43.6006 124.844 43.458C124.865 43.3083 125 43.2157 125.15 43.237C125.955 43.3654 126.702 43.8074 127.378 44.4205C127.977 44.9623 128.518 45.6395 129.002 46.3667C129.066 46.4665 129.137 46.5591 129.201 46.6661C130.269 48.3485 131.038 50.2591 131.365 51.4924C131.693 52.7114 131.857 54.1016 131.899 55.5416C131.907 55.7769 131.921 56.0121 131.921 56.2545C131.921 57.1171 131.871 58.0011 131.786 58.8637C131.793 58.8566 131.8 58.8494 131.8 58.8494C131.878 58.7924 131.949 58.7425 132.021 58.6855C132.142 58.5999 132.255 58.5144 132.376 58.436C132.462 58.3789 132.547 58.329 132.626 58.2791C132.747 58.2007 132.861 58.1294 132.982 58.0653C133.074 58.0154 133.16 57.9654 133.252 57.9155C133.373 57.8514 133.501 57.7872 133.63 57.7231C133.715 57.6803 133.808 57.6375 133.9 57.5947C134.042 57.5306 134.185 57.4664 134.334 57.4023C134.413 57.3737 134.491 57.3381 134.569 57.3025C134.79 57.2169 135.011 57.1385 135.231 57.0601C135.338 57.0244 135.445 56.9888 135.552 56.9603C135.687 56.9104 135.815 56.8747 135.951 56.8319C136.072 56.7963 136.193 56.7607 136.314 56.725C136.392 56.7036 136.47 56.6822 136.542 56.6609C136.549 56.6609 136.549 56.6609 136.549 56.668C137.189 56.4969 137.852 56.3472 138.535 56.2189C142.088 55.5487 145.726 55.1923 149.343 55.0426C154.07 54.8358 158.805 54.957 163.525 55.2137C163.632 54.9784 163.739 54.736 163.846 54.4651C164.436 53.0108 164.508 51.3854 164.508 49.7529C164.508 49.2753 164.501 48.7976 164.501 48.32Z" fill="#D1AE66"/>
<path d="M102.296 86.0392C102.851 86.4741 103.755 87.0016 104.674 87.4935C105.122 87.7359 105.571 87.964 105.984 88.1708C106.425 88.3918 106.831 88.5771 107.151 88.7197C108.896 89.4968 110.775 90.6089 112.712 91.5428C114.655 92.4695 116.67 93.2109 118.692 93.2181C120.508 93.2181 122.33 92.605 124.053 91.0152C124.061 91.0081 124.075 90.9938 124.089 90.9867C125.477 89.6964 126.795 87.6717 127.428 85.8824C128.105 83.9647 128.396 81.9757 128.987 80.1008C129.244 79.2881 129.507 78.4825 129.771 77.677C129.678 77.3775 129.585 77.0781 129.486 76.7787C129.165 77.8338 128.809 78.8818 128.482 79.9368C127.87 81.8688 127.578 83.8506 126.923 85.7042C126.382 87.2654 125.228 89.0761 124.018 90.3023C123.918 90.4021 123.826 90.5019 123.726 90.5946C122.074 92.1202 120.401 92.6763 118.692 92.6834C118.301 92.6834 117.902 92.6406 117.51 92.5907C117.247 92.5479 116.984 92.5052 116.72 92.4481C115.467 92.163 114.2 91.6568 112.947 91.058C111.032 90.1455 109.152 89.0262 107.365 88.2349C106.767 87.964 105.841 87.5149 104.93 87.023C104.019 86.5382 103.129 86.0107 102.623 85.6186C102.075 85.1909 100.801 84.3924 99.1488 83.3302C97.5041 82.2751 95.4964 80.9705 93.5242 79.5661C93.4103 79.4806 93.2465 79.5091 93.1611 79.6232C93.154 79.6232 93.154 79.6232 93.154 79.6303C93.0685 79.7515 93.097 79.9155 93.2181 80.001C93.7022 80.3503 94.1935 80.6925 94.6847 81.0276C95.5035 81.5908 96.308 82.1254 97.0769 82.6245C97.2122 82.7171 97.3475 82.8027 97.4828 82.8882C97.9598 83.2019 98.4226 83.5013 98.864 83.7793C100.509 84.8344 101.797 85.6471 102.296 86.0392Z" fill="#1D1E32"/>
<path d="M119.511 72.3303C119.532 72.1877 119.426 72.0523 119.283 72.0309C117.973 71.8669 116.599 71.8384 115.225 71.8384C114.94 71.8384 114.663 71.8384 114.371 71.8384C113.68 71.8455 112.989 71.8527 112.313 71.8527C112.22 71.8527 112.142 71.9026 112.092 71.9739C112.064 72.0166 112.042 72.0665 112.042 72.1164C112.042 72.2661 112.164 72.3873 112.313 72.3873C113.274 72.3873 114.257 72.3731 115.225 72.3731C116.257 72.3731 117.283 72.3873 118.272 72.4658C118.593 72.4943 118.906 72.5228 119.212 72.5656C119.362 72.5798 119.497 72.48 119.511 72.3303Z" fill="#1D1E32"/>
<path d="M179.117 59.4982C177.081 56.7321 173.457 55.9836 170.104 55.6556C169.349 55.5844 168.609 55.5345 167.897 55.4846C167.455 55.456 167.007 55.4275 166.558 55.399C165.739 55.342 164.913 55.2921 164.095 55.2493C163.91 55.235 163.717 55.2279 163.525 55.2137C158.805 54.957 154.07 54.8358 149.343 55.0426C145.726 55.1923 142.088 55.5487 138.535 56.2188C137.851 56.3472 137.189 56.4969 136.549 56.668C139.945 58.9136 141.034 63.6187 141.611 67.397C142.728 74.747 142.38 82.2466 142.479 89.6607C142.479 89.6607 142.301 112.017 138.293 124.086H101.349C100.58 124.086 99.8608 124.307 99.2485 124.685C98.0951 125.391 97.3262 126.667 97.3262 128.121V132.114C97.3262 133.183 97.7391 134.145 98.4084 134.865C99.1488 135.657 100.188 136.149 101.349 136.149H171.221C173.45 136.149 175.251 134.345 175.251 132.114C176.191 127.558 175.899 119.317 176.163 114.933C176.276 113.065 176.412 111.197 176.554 109.329C176.675 107.725 176.81 106.129 176.953 104.532C177.437 99.0709 178.014 93.6173 178.583 88.1708C178.768 86.4099 178.953 84.6491 179.139 82.8882C179.409 80.1935 179.68 77.4987 179.929 74.804C180.37 69.9563 182.3 63.8325 179.117 59.4982Z" fill="#58356A"/>
<path d="M141.611 67.3969C141.034 63.6186 139.945 58.9206 136.549 56.6679C136.549 56.6607 136.549 56.6607 136.542 56.6607C136.47 56.6821 136.392 56.7035 136.314 56.7249C136.193 56.7605 136.072 56.7962 135.951 56.8318C135.815 56.8746 135.687 56.9103 135.552 56.9602C135.445 56.9887 135.338 57.0243 135.231 57.06C135.011 57.1384 134.79 57.2168 134.569 57.3023C134.491 57.338 134.413 57.3736 134.334 57.4021C134.185 57.4663 134.043 57.5305 133.9 57.5946C133.808 57.6374 133.715 57.6802 133.63 57.7229C133.501 57.7871 133.373 57.8513 133.252 57.9154C133.16 57.9653 133.074 58.0152 132.982 58.0651C132.861 58.1293 132.747 58.2006 132.626 58.279C132.547 58.3289 132.462 58.3788 132.376 58.4358C132.255 58.5143 132.142 58.5998 132.021 58.6854C131.949 58.7424 131.878 58.7923 131.8 58.8493C131.8 58.8493 131.793 58.8565 131.786 58.8636C131.65 58.9634 131.522 59.0774 131.394 59.1915C131.351 59.2272 131.301 59.2628 131.259 59.2984C131.237 59.3198 131.216 59.3412 131.195 59.3626C131.045 59.4981 130.903 59.6406 130.76 59.7903C130.71 59.8474 130.668 59.9044 130.618 59.9543C130.504 60.0826 130.397 60.2109 130.29 60.3393C130.233 60.4106 130.177 60.489 130.127 60.5603C130.027 60.6886 129.942 60.8169 129.849 60.9452C129.799 61.0308 129.742 61.1092 129.692 61.1947C129.607 61.3302 129.529 61.4728 129.45 61.6082C129.4 61.7009 129.351 61.7864 129.308 61.872C129.222 62.0288 129.144 62.1928 129.073 62.3639C129.037 62.4423 128.995 62.5207 128.959 62.6063C128.859 62.8558 128.753 63.1196 128.66 63.3905C127.186 67.7605 127.984 72.1591 129.393 76.4792C129.429 76.5861 129.457 76.6788 129.486 76.7786C129.586 77.078 129.678 77.3774 129.771 77.6769C130.924 81.4338 131.693 85.0838 132.384 89.0547C133.373 94.7293 133.907 101.217 133.274 107.034C133.245 107.283 133.231 107.533 133.195 107.768C132.576 112.651 131.949 120.066 128.966 124.086H138.293C142.301 112.017 142.479 89.6606 142.479 89.6606C142.38 82.2465 142.729 74.7469 141.611 67.3969Z" fill="#694182"/>
<path d="M136.171 174.103H138.542V136.149H135.943V174.103H136.171Z" fill="#7695C0"/>
<path d="M135.943 174.103V136.149H133.345V174.103H135.943Z" fill="#6880B6"/>
<path d="M138.606 174.103H138.542L161.119 181.175L157.872 180.155L152.959 178.608L138.606 174.103Z" fill="#7695C0"/>
<mask id="mask7_43_1133" style="mask-type:luminance" maskUnits="userSpaceOnUse" x="124" y="173" width="41" height="10">
<path d="M124.709 173.611H164.807V183H124.709V173.611Z" fill="white"/>
</mask>
<g mask="url(#mask7_43_1133)">
<path d="M135.523 176.862L138.542 174.103H135.944L125.542 183H163.796C163.596 181.467 161.119 181.175 161.119 181.175L135.523 176.862Z" fill="#7695C0"/>
</g>
<mask id="mask8_43_1133" style="mask-type:luminance" maskUnits="userSpaceOnUse" x="106" y="173" width="32" height="10">
<path d="M106.482 173.611H137.467V183H106.482V173.611Z" fill="white"/>
</mask>
<g mask="url(#mask8_43_1133)">
<path d="M135.716 174.103H133.281L110.768 181.175C110.768 181.175 108.291 181.467 108.091 183H125.542L135.943 174.103H135.716Z" fill="#6880B6"/>
</g>
<path d="M138.542 174.103L135.523 176.862L161.119 181.175L138.542 174.103Z" fill="#93B0E1"/>
<path d="M116.856 101.808C116.841 101.666 116.727 101.559 116.585 101.566C116.578 101.566 116.578 101.559 116.571 101.559C109.964 102.008 103.25 102.642 97.6182 102.849C93.5244 102.999 89.1671 102.65 85.1018 103.911C81.1859 105.13 78.929 107.975 77.384 111.276C75.839 114.591 74.9704 118.39 73.8242 121.62C72.0514 126.596 70.129 131.543 68.2779 136.505C66.9964 139.948 64.2126 146.878 61.9058 153.907C61.856 154.042 61.9343 154.192 62.0624 154.242C62.0695 154.242 62.0695 154.242 62.0767 154.242C62.2119 154.292 62.3615 154.213 62.4113 154.071C64.711 147.063 67.4876 140.148 68.7763 136.69C70.6274 131.736 72.5497 126.788 74.3297 121.798C75.4902 118.526 76.3517 114.747 77.8682 111.504C79.3918 108.267 81.5277 105.587 85.2655 104.425C86.4759 104.047 87.7289 103.812 89.0034 103.676C90.0286 103.562 91.0681 103.505 92.1147 103.477C93.9587 103.42 95.8169 103.448 97.6395 103.384C103.293 103.17 110.006 102.536 116.606 102.094C116.67 102.094 116.727 102.058 116.77 102.022C116.827 101.965 116.863 101.894 116.856 101.808Z" fill="#1D1E32"/>
<path d="M89.2026 164.386C91.0252 159.132 92.6272 153.493 94.1009 149.145C94.8556 146.92 95.6958 143.62 96.5145 141.445C97.1624 139.72 97.4045 138.772 98.2446 136.234C98.2944 136.099 98.2161 135.949 98.0809 135.899C98.0809 135.899 98.0808 135.899 98.0737 135.899C97.9385 135.849 97.7818 135.928 97.7391 136.07C96.899 138.615 96.6498 139.556 96.0161 141.253C95.1831 143.477 94.343 146.785 93.5954 148.974C92.1145 153.336 90.5126 158.975 88.7042 164.208C88.6544 164.351 88.7256 164.5 88.868 164.55C88.868 164.55 88.868 164.55 88.8751 164.55C89.0104 164.6 89.1599 164.522 89.2026 164.386Z" fill="#1D1E32"/>
</svg>
