<svg width="241" height="30" viewBox="0 0 241 30" fill="none" xmlns="http://www.w3.org/2000/svg">
<path d="M8.21707 3.592C10.1411 3.592 11.8224 3.982 13.2611 4.762C14.7171 5.542 15.8351 6.62533 16.6151 8.012C17.3951 9.39867 17.7851 10.976 17.7851 12.744C17.7851 14.4947 17.3951 16.072 16.6151 17.476C15.8351 18.88 14.7171 19.9893 13.2611 20.804C11.8224 21.6013 10.1411 22 8.21707 22H0.54707V3.592H8.21707ZM7.69707 16.852C8.99707 16.852 10.0284 16.4967 10.7911 15.786C11.5537 15.0753 11.9351 14.0613 11.9351 12.744C11.9351 11.4267 11.5537 10.4127 10.7911 9.702C10.0284 8.99133 8.99707 8.636 7.69707 8.636H6.31907V16.852H7.69707ZM34.0653 14.538C34.0653 14.9367 34.0393 15.318 33.9873 15.682H24.7053C24.792 16.9473 25.3207 17.58 26.2913 17.58C26.9153 17.58 27.366 17.294 27.6433 16.722H33.7533C33.5453 17.762 33.1033 18.698 32.4273 19.53C31.7687 20.3447 30.928 20.9947 29.9053 21.48C28.9 21.948 27.7907 22.182 26.5773 22.182C25.1213 22.182 23.8213 21.8787 22.6773 21.272C21.5507 20.6653 20.6667 19.7987 20.0253 18.672C19.4013 17.528 19.0893 16.1933 19.0893 14.668C19.0893 13.1427 19.4013 11.8167 20.0253 10.69C20.6667 9.546 21.5507 8.67067 22.6773 8.064C23.8213 7.45733 25.1213 7.154 26.5773 7.154C28.0333 7.154 29.3247 7.45733 30.4513 8.064C31.5953 8.65333 32.4793 9.50267 33.1033 10.612C33.7447 11.7213 34.0653 13.03 34.0653 14.538ZM28.2153 13.16C28.2153 12.6747 28.0593 12.3107 27.7473 12.068C27.4353 11.808 27.0453 11.678 26.5773 11.678C25.5547 11.678 24.9567 12.172 24.7833 13.16H28.2153ZM43.3268 16.514L45.6668 7.336H51.8028L46.9148 22H39.7128L34.8248 7.336H40.9608L43.3268 16.514ZM68.3882 9.91C68.3882 11.0713 68.1195 12.1287 67.5822 13.082C67.0448 14.018 66.2475 14.7633 65.1902 15.318C64.1502 15.8727 62.8848 16.15 61.3942 16.15H59.1062V22H53.3342V3.592H61.3942C63.6475 3.592 65.3722 4.164 66.5682 5.308C67.7815 6.452 68.3882 7.986 68.3882 9.91ZM60.7442 11.6C61.9402 11.6 62.5382 11.0367 62.5382 9.91C62.5382 8.78333 61.9402 8.22 60.7442 8.22H59.1062V11.6H60.7442ZM69.4389 14.668C69.4389 13.1253 69.6989 11.7907 70.2189 10.664C70.7563 9.52 71.4843 8.65333 72.4029 8.064C73.3216 7.45733 74.3529 7.154 75.4969 7.154C76.4503 7.154 77.2736 7.35333 77.9669 7.752C78.6603 8.13333 79.1889 8.662 79.5529 9.338V7.336H85.2989V22H79.5529V19.998C79.1889 20.674 78.6603 21.2113 77.9669 21.61C77.2736 21.9913 76.4503 22.182 75.4969 22.182C74.3529 22.182 73.3216 21.8873 72.4029 21.298C71.4843 20.6913 70.7563 19.8247 70.2189 18.698C69.6989 17.554 69.4389 16.2107 69.4389 14.668ZM79.5529 14.668C79.5529 13.888 79.3536 13.2813 78.9549 12.848C78.5563 12.4147 78.0449 12.198 77.4209 12.198C76.7969 12.198 76.2856 12.4147 75.8869 12.848C75.4883 13.2813 75.2889 13.888 75.2889 14.668C75.2889 15.448 75.4883 16.0547 75.8869 16.488C76.2856 16.9213 76.7969 17.138 77.4209 17.138C78.0449 17.138 78.5563 16.9213 78.9549 16.488C79.3536 16.0547 79.5529 15.448 79.5529 14.668ZM97.0168 17.086V22H94.8328C90.8115 22 88.8008 19.998 88.8008 15.994V12.146H86.9808V7.336H88.8008V3.8H94.5728V7.336H96.9648V12.146H94.5728V16.098C94.5728 16.4447 94.6508 16.696 94.8068 16.852C94.9802 17.008 95.2575 17.086 95.6388 17.086H97.0168ZM109.485 7.232C111.166 7.232 112.475 7.79533 113.411 8.922C114.364 10.0487 114.841 11.574 114.841 13.498V22H109.095V14.226C109.095 13.5327 108.904 12.9867 108.523 12.588C108.159 12.172 107.665 11.964 107.041 11.964C106.4 11.964 105.897 12.172 105.533 12.588C105.169 12.9867 104.987 13.5327 104.987 14.226V22H99.215V2.76H104.987V9.572C105.438 8.87867 106.036 8.31533 106.781 7.882C107.544 7.44867 108.445 7.232 109.485 7.232Z" fill="#6059F7"/>
<path d="M127.534 17.632H133.098V22H121.762V3.592H127.534V17.632ZM149.11 14.538C149.11 14.9367 149.084 15.318 149.032 15.682H139.75C139.837 16.9473 140.366 17.58 141.336 17.58C141.96 17.58 142.411 17.294 142.688 16.722H148.798C148.59 17.762 148.148 18.698 147.472 19.53C146.814 20.3447 145.973 20.9947 144.95 21.48C143.945 21.948 142.836 22.182 141.622 22.182C140.166 22.182 138.866 21.8787 137.722 21.272C136.596 20.6653 135.712 19.7987 135.07 18.672C134.446 17.528 134.134 16.1933 134.134 14.668C134.134 13.1427 134.446 11.8167 135.07 10.69C135.712 9.546 136.596 8.67067 137.722 8.064C138.866 7.45733 140.166 7.154 141.622 7.154C143.078 7.154 144.37 7.45733 145.496 8.064C146.64 8.65333 147.524 9.50267 148.148 10.612C148.79 11.7213 149.11 13.03 149.11 14.538ZM143.26 13.16C143.26 12.6747 143.104 12.3107 142.792 12.068C142.48 11.808 142.09 11.678 141.622 11.678C140.6 11.678 140.002 12.172 139.828 13.16H143.26ZM150.156 14.668C150.156 13.1253 150.416 11.7907 150.936 10.664C151.473 9.52 152.201 8.65333 153.12 8.064C154.038 7.45733 155.07 7.154 156.214 7.154C157.167 7.154 157.99 7.35333 158.684 7.752C159.377 8.13333 159.906 8.662 160.27 9.338V7.336H166.016V22H160.27V19.998C159.906 20.674 159.377 21.2113 158.684 21.61C157.99 21.9913 157.167 22.182 156.214 22.182C155.07 22.182 154.038 21.8873 153.12 21.298C152.201 20.6913 151.473 19.8247 150.936 18.698C150.416 17.554 150.156 16.2107 150.156 14.668ZM160.27 14.668C160.27 13.888 160.07 13.2813 159.672 12.848C159.273 12.4147 158.762 12.198 158.138 12.198C157.514 12.198 157.002 12.4147 156.604 12.848C156.205 13.2813 156.006 13.888 156.006 14.668C156.006 15.448 156.205 16.0547 156.604 16.488C157.002 16.9213 157.514 17.138 158.138 17.138C158.762 17.138 159.273 16.9213 159.672 16.488C160.07 16.0547 160.27 15.448 160.27 14.668ZM174.38 10.04C174.969 9.19067 175.688 8.51467 176.538 8.012C177.387 7.492 178.271 7.232 179.19 7.232V13.394H177.552C176.46 13.394 175.654 13.5847 175.134 13.966C174.631 14.3473 174.38 15.0233 174.38 15.994V22H168.608V7.336H174.38V10.04ZM191.014 7.232C192.696 7.232 194.004 7.79533 194.94 8.922C195.894 10.0487 196.37 11.574 196.37 13.498V22H190.624V14.226C190.624 13.5327 190.434 12.9867 190.052 12.588C189.688 12.172 189.194 11.964 188.57 11.964C187.929 11.964 187.426 12.172 187.062 12.588C186.698 12.9867 186.516 13.5327 186.516 14.226V22H180.744V7.336H186.516V9.572C186.967 8.87867 187.565 8.31533 188.31 7.882C189.073 7.44867 189.974 7.232 191.014 7.232ZM201.785 6.166C200.78 6.166 199.974 5.89733 199.367 5.36C198.761 4.82267 198.457 4.14667 198.457 3.332C198.457 2.5 198.761 1.81533 199.367 1.278C199.974 0.723332 200.78 0.445999 201.785 0.445999C202.773 0.445999 203.571 0.723332 204.177 1.278C204.784 1.81533 205.087 2.5 205.087 3.332C205.087 4.14667 204.784 4.82267 204.177 5.36C203.571 5.89733 202.773 6.166 201.785 6.166ZM204.645 7.336V22H198.873V7.336H204.645ZM217.522 7.232C219.203 7.232 220.512 7.79533 221.448 8.922C222.401 10.0487 222.878 11.574 222.878 13.498V22H217.132V14.226C217.132 13.5327 216.941 12.9867 216.56 12.588C216.196 12.172 215.702 11.964 215.078 11.964C214.437 11.964 213.934 12.172 213.57 12.588C213.206 12.9867 213.024 13.5327 213.024 14.226V22H207.252V7.336H213.024V9.572C213.475 8.87867 214.073 8.31533 214.818 7.882C215.581 7.44867 216.482 7.232 217.522 7.232ZM230.659 7.154C231.612 7.154 232.436 7.35333 233.129 7.752C233.822 8.13333 234.351 8.662 234.715 9.338V7.336H240.461V21.74C240.461 23.1093 240.21 24.3573 239.707 25.484C239.204 26.6107 238.39 27.512 237.263 28.188C236.154 28.864 234.724 29.202 232.973 29.202C230.616 29.202 228.744 28.6473 227.357 27.538C225.988 26.446 225.208 24.9553 225.017 23.066H230.685C230.841 23.8287 231.465 24.21 232.557 24.21C233.233 24.21 233.762 24.0367 234.143 23.69C234.524 23.3433 234.715 22.6933 234.715 21.74V19.998C234.351 20.674 233.822 21.2113 233.129 21.61C232.436 21.9913 231.612 22.182 230.659 22.182C229.515 22.182 228.484 21.8873 227.565 21.298C226.646 20.6913 225.918 19.8247 225.381 18.698C224.861 17.554 224.601 16.2107 224.601 14.668C224.601 13.1253 224.861 11.7907 225.381 10.664C225.918 9.52 226.646 8.65333 227.565 8.064C228.484 7.45733 229.515 7.154 230.659 7.154ZM234.715 14.668C234.715 13.888 234.516 13.2813 234.117 12.848C233.718 12.4147 233.207 12.198 232.583 12.198C231.959 12.198 231.448 12.4147 231.049 12.848C230.65 13.2813 230.451 13.888 230.451 14.668C230.451 15.448 230.65 16.0547 231.049 16.488C231.448 16.9213 231.959 17.138 232.583 17.138C233.207 17.138 233.718 16.9213 234.117 16.488C234.516 16.0547 234.715 15.448 234.715 14.668Z" fill="#C458D3"/>
</svg>
